<?xml version="1.0" encoding="UTF-8" standalone="no"?>
<!-- Generator: Adobe Illustrator 25.0.1, SVG Export Plug-In . SVG Version: 6.00 Build 0)  -->

<svg
   xmlns:dc="http://purl.org/dc/elements/1.1/"
   xmlns:cc="http://creativecommons.org/ns#"
   xmlns:rdf="http://www.w3.org/1999/02/22-rdf-syntax-ns#"
   xmlns:svg="http://www.w3.org/2000/svg"
   xmlns="http://www.w3.org/2000/svg"
   xmlns:sodipodi="http://sodipodi.sourceforge.net/DTD/sodipodi-0.dtd"
   xmlns:inkscape="http://www.inkscape.org/namespaces/inkscape"
   version="1.0"
   id="katman_1"
   x="0px"
   y="0px"
   viewBox="0 0 560 400"
   style="enable-background:new 0 0 560 400;"
   xml:space="preserve"
   sodipodi:docname="WordPress.svg"
   inkscape:version="0.92.1 r15371"><metadata
     id="metadata4878"><rdf:RDF><cc:Work
         rdf:about=""><dc:format>image/svg+xml</dc:format><dc:type
           rdf:resource="http://purl.org/dc/dcmitype/StillImage" /><dc:title></dc:title></cc:Work></rdf:RDF></metadata><defs
     id="defs4876" /><sodipodi:namedview
     pagecolor="#ffffff"
     bordercolor="#666666"
     borderopacity="1"
     objecttolerance="10"
     gridtolerance="10"
     guidetolerance="10"
     inkscape:pageopacity="0"
     inkscape:pageshadow="2"
     inkscape:window-width="1920"
     inkscape:window-height="1017"
     id="namedview4874"
     showgrid="false"
     inkscape:zoom="0.59"
     inkscape:cx="280"
     inkscape:cy="200"
     inkscape:window-x="-8"
     inkscape:window-y="-8"
     inkscape:window-maximized="1"
     inkscape:current-layer="katman_1" /><style
     type="text/css"
     id="style4859">
	.st0{fill:#21759B;}
</style><g
     transform="matrix(3.2226264,0,0,3.2226264,87.627119,4.2421884)"
     id="g4871"><path
       class="st0"
       d="m 8.7,61.3 c 0,20.8 12.1,38.8 29.6,47.3 l -25,-68.7 c -3,6.5 -4.6,13.7 -4.6,21.4 z"
       id="path4861"
       inkscape:connector-curvature="0"
       style="fill:#21759b" /><path
       class="st0"
       d="m 96.7,58.6 c 0,-6.5 -2.3,-11 -4.3,-14.5 -2.7,-4.3 -5.2,-8 -5.2,-12.3 0,-4.8 3.7,-9.3 8.8,-9.3 0.2,0 0.5,0 0.7,0 C 87.4,13.9 74.9,8.7 61.3,8.7 c -18.4,0 -34.5,9.4 -43.9,23.7 1.2,0 2.4,0.1 3.4,0.1 5.5,0 14,-0.7 14,-0.7 2.8,-0.2 3.2,4 0.3,4.3 0,0 -2.8,0.3 -6,0.5 L 48.2,93.5 59.7,59 51.5,36.6 C 48.7,36.4 46,36.1 46,36.1 c -2.8,-0.2 -2.5,-4.5 0.3,-4.3 0,0 8.7,0.7 13.8,0.7 5.5,0 14,-0.7 14,-0.7 2.8,-0.2 3.2,4 0.3,4.3 0,0 -2.9,0.3 -6,0.5 l 19,56.5 5.2,-17.5 c 2.4,-7.3 4.1,-12.5 4.1,-17 z"
       id="path4863"
       inkscape:connector-curvature="0"
       style="fill:#21759b" /><path
       class="st0"
       d="m 62.2,65.9 -15.8,45.8 c 4.7,1.4 9.7,2.1 14.8,2.1 6.1,0 12,-1.1 17.5,-3 -0.1,-0.2 -0.3,-0.5 -0.4,-0.7 z"
       id="path4865"
       inkscape:connector-curvature="0"
       style="fill:#21759b" /><path
       class="st0"
       d="m 107.4,36 c 0.2,1.7 0.4,3.5 0.4,5.4 0,5.3 -1,11.3 -4,18.8 l -16.1,46.4 c 15.6,-9.1 26.1,-26 26.1,-45.4 0,-9.1 -2.3,-17.7 -6.4,-25.2 z"
       id="path4867"
       inkscape:connector-curvature="0"
       style="fill:#21759b" /><path
       class="st0"
       d="M 61.3,0 C 27.5,0 0,27.5 0,61.3 c 0,33.8 27.5,61.3 61.3,61.3 33.8,0 61.3,-27.5 61.3,-61.3 C 122.5,27.5 95,0 61.3,0 Z m 0,119.7 C 29,119.7 2.8,93.5 2.8,61.3 2.8,29 29,2.8 61.3,2.8 c 32.2,0 58.5,26.2 58.5,58.5 -0.1,32.2 -26.3,58.4 -58.5,58.4 z"
       id="path4869"
       inkscape:connector-curvature="0"
       style="fill:#21759b" /></g></svg>